# xmcd
#
# Track frame offsets: 
#        150
#        16509
#        34248
#        49800
#        67188
#        79626
#        98095
#        112875
#        126537
#        137992
#        149794
#
# Disc length: 2158 seconds
#
# Revision: 2
# Processed by: cddbd v1.5.2PL0 Copyright (c) Steve Scherf et al.
# Submitted via: ExactAudioCopyFreeDBPlugin 1.0
#
DISCID=9e086c0b
DTITLE=The Pepper Pots - Now!
DYEAR=2009
DGENRE=Soul
TTITLE0=Real Tru Love
TTITLE1=You're Still in My Mind
TTITLE2=Talk to Me
TTITLE3=Dream Guy
TTITLE4=Highway
TTITLE5=Time to Live
TTITLE6=Young Girl
TTITLE7=Keep Waiting
TTITLE8=That's Enough Forever
TTITLE9=Starlight
TTITLE10=Take a Chance
EXTD=
EXTT0=
EXTT1=
EXTT2=
EXTT3=
EXTT4=
EXTT5=
EXTT6=
EXTT7=
EXTT8=
EXTT9=
EXTT10=
PLAYORDER=
